<svg width="93" height="38" viewBox="0 0 93 38" fill="none" xmlns="http://www.w3.org/2000/svg">
<path d="M92.7147 10.0588C92.7147 29.5009 96.9041 38 73.1768 38C73.1768 20.6765 0.285342 48.5009 0.285342 29.0588C0.285342 9.61678 -3.90416 0 19.8232 0C19.8232 13.4118 92.7147 -9.38322 92.7147 10.0588Z" fill="#304D4E"/>
<line y1="18.5" x2="93" y2="18.5" stroke="#FBF0DF"/>
<path d="M20.4831 17.72C20.4831 18.9733 20.2565 20.0867 19.8031 21.06C19.3498 22.0333 18.6831 22.8 17.8031 23.36C16.9231 23.92 15.8631 24.2 14.6231 24.2H14.3031C12.9965 24.2 11.9431 23.8333 11.1431 23.1C10.3431 22.3667 9.94313 21.3533 9.94313 20.06C9.94313 18.7667 10.1765 17.6333 10.6431 16.66C11.1231 15.6867 11.8031 14.9333 12.6831 14.4C13.5631 13.8533 14.6031 13.58 15.8031 13.58H16.1231C17.4165 13.58 18.4631 13.9467 19.2631 14.68C20.0765 15.4133 20.4831 16.4267 20.4831 17.72ZM17.3031 19.7C17.4765 18.38 17.5631 17.66 17.5631 17.54C17.5631 16.9 17.3898 16.4133 17.0431 16.08C16.7098 15.7467 16.2565 15.58 15.6831 15.58C15.0298 15.58 14.4631 15.8 13.9831 16.24C13.5165 16.6667 13.2298 17.28 13.1231 18.08C12.9498 19.4 12.8631 20.12 12.8631 20.24C12.8631 20.88 13.0298 21.3667 13.3631 21.7C13.7098 22.0333 14.1698 22.2 14.7431 22.2C15.3831 22.2 15.9365 21.9867 16.4031 21.56C16.8831 21.12 17.1831 20.5 17.3031 19.7ZM28.4344 17.74C28.4877 17.3667 28.5144 17.1133 28.5144 16.98C28.5144 16.6333 28.4144 16.3467 28.2144 16.12C28.0277 15.88 27.721 15.76 27.2944 15.76C26.8144 15.76 26.4277 15.9467 26.1344 16.32C25.841 16.68 25.6544 17.1333 25.5744 17.68L24.6944 24H21.8144L23.2544 13.78H25.4144L25.5544 15.28C25.6344 15.1333 25.801 14.9267 26.0544 14.66C26.321 14.3933 26.6744 14.1467 27.1144 13.92C27.5677 13.6933 28.081 13.58 28.6544 13.58C29.4677 13.58 30.081 13.8067 30.4944 14.26C30.921 14.7133 31.1344 15.32 31.1344 16.08C31.1344 16.2667 31.101 16.5667 31.0344 16.98C30.9677 17.38 30.9144 17.6333 30.8744 17.74H28.4344ZM34.4995 24.38C34.4995 24.7667 34.6462 25.0867 34.9395 25.34C35.2329 25.6067 35.6395 25.74 36.1595 25.74C36.7329 25.74 37.1729 25.5867 37.4795 25.28C37.7862 24.9733 37.9929 24.6133 38.0995 24.2C38.2062 23.7867 38.2929 23.2733 38.3595 22.66C38.3595 22.54 38.3729 22.4 38.3995 22.24C38.0262 22.6533 37.5729 22.9867 37.0395 23.24C36.5062 23.4933 35.9395 23.62 35.3395 23.62C34.2995 23.62 33.4862 23.2667 32.8995 22.56C32.3129 21.8533 32.0195 20.92 32.0195 19.76C32.0195 18.7067 32.1995 17.7133 32.5595 16.78C32.9329 15.8333 33.4995 15.0667 34.2595 14.48C35.0195 13.88 35.9595 13.58 37.0795 13.58C37.7862 13.58 38.4062 13.7267 38.9395 14.02C39.4862 14.3133 39.9129 14.7533 40.2195 15.34C40.4862 14.9933 40.8995 14.4733 41.4595 13.78H42.5195L41.1795 23.26C40.9929 24.6733 40.4462 25.7667 39.5395 26.54C38.6462 27.3267 37.4595 27.72 35.9795 27.72C34.6595 27.72 33.5929 27.4267 32.7795 26.84C31.9795 26.2667 31.5795 25.4467 31.5795 24.38H34.4995ZM35.1795 17.82C34.9929 19.0733 34.8995 19.76 34.8995 19.88C34.8995 20.44 35.0462 20.8733 35.3395 21.18C35.6462 21.4733 36.0462 21.62 36.5395 21.62C37.1129 21.62 37.6062 21.4267 38.0195 21.04C38.4462 20.6533 38.7129 20.1 38.8195 19.38L38.8795 18.92C38.9995 18.1733 39.0595 17.6933 39.0595 17.48C39.0595 16.8533 38.9195 16.38 38.6395 16.06C38.3595 15.74 37.9662 15.58 37.4595 15.58C36.8995 15.58 36.4062 15.7733 35.9795 16.16C35.5662 16.5467 35.2995 17.1 35.1795 17.82ZM53.1361 13.78C52.4161 18.7667 52.0561 21.3933 52.0561 21.66C52.0561 21.8333 52.0961 21.9667 52.1761 22.06C52.2694 22.1533 52.3961 22.2 52.5561 22.2C52.6894 22.2 52.8361 22.1733 52.9961 22.12C53.1561 22.0667 53.2894 22 53.3961 21.92L53.1161 23.78C52.8894 23.9 52.6094 24 52.2761 24.08C51.9561 24.16 51.6361 24.2 51.3161 24.2C50.0094 24.2 49.3028 23.6933 49.1961 22.68C48.7961 23.1467 48.3228 23.52 47.7761 23.8C47.2428 24.0667 46.6694 24.2 46.0561 24.2C44.9494 24.2 44.0961 23.8467 43.4961 23.14C42.9094 22.4333 42.6161 21.4467 42.6161 20.18C42.6161 18.9667 42.8094 17.86 43.1961 16.86C43.5961 15.86 44.1561 15.0667 44.8761 14.48C45.6094 13.88 46.4628 13.58 47.4361 13.58C48.0494 13.58 48.5961 13.7133 49.0761 13.98C49.5694 14.2333 49.9494 14.5867 50.2161 15.04H50.3361L50.9961 13.78H53.1361ZM49.3761 19.78C49.5628 18.4467 49.6561 17.7067 49.6561 17.56C49.6561 16.96 49.5094 16.5 49.2161 16.18C48.9228 15.86 48.5294 15.7 48.0361 15.7C47.4628 15.7 46.9694 15.9067 46.5561 16.32C46.1561 16.7333 45.8961 17.3333 45.7761 18.12C45.5894 19.4533 45.4961 20.1933 45.4961 20.34C45.4961 20.94 45.6428 21.4 45.9361 21.72C46.2294 22.04 46.6228 22.2 47.1161 22.2C47.6761 22.2 48.1628 21.9933 48.5761 21.58C48.9894 21.1667 49.2561 20.5667 49.3761 19.78ZM58.2492 15.28C59.2492 14.1467 60.4159 13.58 61.7492 13.58C62.6826 13.58 63.4426 13.8133 64.0292 14.28C64.6159 14.7333 64.9092 15.4 64.9092 16.28C64.9092 16.4533 64.8826 16.7133 64.8292 17.06C64.7892 17.3933 64.7092 17.98 64.5892 18.82C64.6159 18.5667 64.3759 20.2933 63.8692 24H60.9492C61.5759 19.6 61.8892 17.3333 61.8892 17.2C61.8892 16.76 61.7626 16.4 61.5092 16.12C61.2559 15.84 60.9226 15.7 60.5092 15.7C59.9892 15.7 59.5159 15.9 59.0892 16.3C58.6626 16.6867 58.4092 17.16 58.3292 17.72L57.4492 24H54.5292L55.9692 13.78H58.1492L58.2492 15.28ZM68.1828 9.6H71.1428L70.8228 11.9H67.8628L68.1828 9.6ZM66.1828 24L67.6228 13.78H70.5428L69.1028 24H66.1828ZM75.3692 18.08C75.1826 19.4667 75.0892 20.22 75.0892 20.34C75.0892 20.8867 75.2292 21.3333 75.5092 21.68C75.7892 22.0267 76.1892 22.2 76.7092 22.2C77.3226 22.2 77.8292 22.0133 78.2292 21.64C78.6426 21.2533 78.9026 20.6867 79.0092 19.94H81.7692C81.6359 20.8867 81.3226 21.68 80.8292 22.32C80.3359 22.96 79.7292 23.4333 79.0092 23.74C78.3026 24.0467 77.5492 24.2 76.7492 24.2H76.4292C75.0959 24.2 74.0492 23.8467 73.2892 23.14C72.5426 22.4333 72.1692 21.44 72.1692 20.16C72.1692 19.0133 72.3759 17.94 72.7892 16.94C73.2159 15.94 73.8559 15.1333 74.7092 14.52C75.5759 13.8933 76.6492 13.58 77.9292 13.58H78.2492C78.9692 13.58 79.6226 13.72 80.2092 14C80.7959 14.28 81.2559 14.6933 81.5892 15.24C81.9359 15.7867 82.1092 16.4333 82.1092 17.18C82.1092 17.4733 82.0959 17.7 82.0692 17.86H79.1692C79.1959 17.62 79.2092 17.44 79.2092 17.32C79.2092 16.7733 79.0826 16.3467 78.8292 16.04C78.5759 15.7333 78.1892 15.58 77.6692 15.58C77.0692 15.58 76.5559 15.82 76.1292 16.3C75.7159 16.78 75.4626 17.3733 75.3692 18.08Z" fill="#FBF0DF"/>
</svg>
