<svg width="65" height="65" viewBox="0 0 65 65" fill="none" xmlns="http://www.w3.org/2000/svg">
<path d="M43.3333 56.875H21.6667C20.9484 56.875 20.2595 56.5897 19.7516 56.0817C19.2437 55.5738 18.9583 54.885 18.9583 54.1667V32.6896L15.4375 35.5333C14.3813 36.5625 12.675 36.5625 11.6188 35.5333L3.95417 27.8687C2.89792 26.8125 2.89792 25.1062 3.95417 24.05L19.8792 8.125H24.375C24.375 11.1042 27.0833 16.25 32.5 19.6354C37.9167 16.25 40.625 11.1042 40.625 8.125H45.1208L61.0458 24.05C62.1021 25.1062 62.1021 26.8125 61.0458 27.8687L53.3813 35.5333C52.325 36.5625 50.6188 36.5625 49.5625 35.5333L46.0417 32.6896V54.1667C46.0417 54.885 45.7563 55.5738 45.2484 56.0817C44.7405 56.5897 44.0516 56.875 43.3333 56.875ZM55.3042 25.9458L43.6313 14.3C40.625 18.9583 37.9167 22.3437 32.5 25.0521C27.0833 22.3437 24.375 18.9583 21.3688 14.3L9.69584 25.9458L13.5417 29.7917L21.6667 24.375H24.375V51.4583H40.625V24.375H43.3333L51.4583 29.7917L55.3042 25.9458Z" fill="black"/>
</svg>
