<svg width="57" height="57" viewBox="0 0 57 57" fill="none" xmlns="http://www.w3.org/2000/svg">
<path d="M54.3843 1.78125H51.8789V2.57925C48.3913 3.35944 47.8898 6.59686 47.693 7.83394C47.5995 8.41908 47.4098 9.56353 47.1747 10.9654H3.55184C1.82581 10.9654 1.63255 12.5783 1.85787 13.4707L6.97541 36.0632C7.19984 36.9556 8.1448 37.6841 9.07105 37.6841H47.318C48.239 37.6841 48.9897 38.4331 48.9897 39.354C48.9897 40.275 48.239 41.024 47.318 41.024H5.57089C5.128 41.024 4.70325 41.1999 4.39008 41.5131C4.07691 41.8262 3.90097 42.251 3.90097 42.6939C3.90097 43.1368 4.07691 43.5615 4.39008 43.8747C4.70325 44.1879 5.128 44.3638 5.57089 44.3638H7.73511C6.69014 44.9407 5.81901 45.7873 5.21248 46.8154C4.60595 47.8434 4.28622 49.0153 4.28661 50.209H5.95653C5.95653 52.9744 8.20091 55.2188 10.9663 55.2188C13.7317 55.2188 15.9761 52.9744 15.9761 50.209H17.646C17.6462 49.0153 17.3263 47.8433 16.7196 46.8153C16.1129 45.7872 15.2417 44.9407 14.1966 44.3638H37.7928C36.7477 44.9407 35.8765 45.7872 35.2698 46.8153C34.6631 47.8433 34.3432 49.0153 34.3434 50.209H36.0133C36.0381 51.5215 36.5769 52.772 37.5139 53.6915C38.4508 54.6109 39.7112 55.1261 41.024 55.1261C42.3368 55.1261 43.5972 54.6109 44.5341 53.6915C45.4711 52.772 46.0099 51.5215 46.0347 50.209H47.7046C47.7047 49.0154 47.3848 47.8436 46.7783 46.8156C46.1718 45.7876 45.3009 44.9409 44.2561 44.3638H47.3198C48.6483 44.3631 49.9221 43.8351 50.8615 42.8957C51.8008 41.9563 52.3289 40.6825 52.3296 39.354C52.3295 38.696 52.1998 38.0445 51.9478 37.4366C51.6959 36.8287 51.3267 36.2764 50.8614 35.8112C50.396 35.346 49.8436 34.9771 49.2356 34.7254C48.6276 34.4737 47.9761 34.3442 47.318 34.3443H46.6973L48.833 21.0651C49.4279 17.5578 50.7104 9.98123 51.0115 8.09667C51.1629 7.14459 51.3098 6.47573 51.8789 6.10078V6.79012H54.3843C54.6052 6.78942 54.8169 6.7014 54.9733 6.54524C55.1296 6.38908 55.2178 6.17746 55.2188 5.9565V2.61666C55.2183 2.39539 55.1303 2.18331 54.9739 2.02677C54.8175 1.87023 54.6055 1.78196 54.3843 1.78125ZM10.9663 52.7143C10.3021 52.7136 9.66523 52.4494 9.19554 51.9797C8.72586 51.51 8.46168 50.8732 8.46097 50.209H13.4707C13.47 50.8731 13.206 51.5098 12.7365 51.9794C12.267 52.4491 11.6304 52.7134 10.9663 52.7143ZM41.0249 52.7143C40.3605 52.7138 39.7234 52.4498 39.2536 51.9801C38.7837 51.5103 38.5194 50.8734 38.5187 50.209H43.5302C43.529 50.8731 43.2647 51.5096 42.7951 51.9792C42.3255 52.4488 41.689 52.7131 41.0249 52.7143ZM38.9702 15.1353C38.9996 14.9089 39.1093 14.7006 39.2793 14.5483C39.4492 14.396 39.6683 14.3097 39.8965 14.3052H45.1841C45.6437 14.3052 45.9634 14.6757 45.8913 15.1308L45.3676 18.4894C45.2981 18.9436 44.8626 19.315 44.4021 19.315H39.3585C39.2523 19.3178 39.1468 19.2976 39.0491 19.2557C38.9515 19.2138 38.8641 19.1513 38.7929 19.0724C38.7217 18.9935 38.6685 18.9002 38.6368 18.7988C38.6052 18.6974 38.5958 18.5903 38.6095 18.4849L38.9702 15.1353ZM38.0716 23.4849C38.1015 23.2588 38.2113 23.0508 38.3812 22.8986C38.5511 22.7463 38.7698 22.6599 38.9978 22.6548H43.8811C44.3416 22.6548 44.6604 23.0253 44.591 23.4804L44.1964 26.0045C44.126 26.4587 43.6914 26.8301 43.231 26.8301H38.549C38.4428 26.8326 38.3374 26.8122 38.2399 26.7702C38.1424 26.7282 38.0551 26.6657 37.984 26.5869C37.9129 26.5081 37.8596 26.4148 37.8279 26.3136C37.7961 26.2123 37.7866 26.1053 37.7999 26L38.0716 23.4849ZM6.11506 18.5045L5.26897 15.1157C5.15853 14.6686 5.44531 14.3052 5.90577 14.3052H12.1927C12.654 14.3052 13.07 14.6784 13.1189 15.1353L13.4787 18.4858C13.4921 18.591 13.4826 18.6979 13.4509 18.7991C13.4192 18.9004 13.366 18.9935 13.295 19.0723C13.2239 19.1511 13.1368 19.2137 13.0394 19.2557C12.942 19.2977 12.8367 19.3183 12.7306 19.3159H7.15442C6.69486 19.3159 6.22639 18.9498 6.11506 18.5045ZM9.0283 26.8301C8.56873 26.8301 8.10027 26.4649 7.98983 26.0196L7.35214 23.4662C7.24081 23.0191 7.52581 22.6557 7.98627 22.6557H13.0887C13.5491 22.6557 13.9659 23.0289 14.0149 23.4858L14.2857 26.0009C14.2992 26.1062 14.2898 26.2131 14.2581 26.3144C14.2264 26.4157 14.1733 26.5089 14.1022 26.5877C14.0312 26.6666 13.9439 26.7291 13.8465 26.7711C13.749 26.8131 13.6436 26.8335 13.5375 26.831H9.0283V26.8301ZM14.3444 34.3452H10.9022C10.4399 34.3452 9.97414 33.98 9.86281 33.5347L9.22512 30.9813C9.11469 30.5342 9.39969 30.1708 9.86103 30.1708H13.8956C14.356 30.1708 14.7728 30.544 14.8236 31.0009L15.0926 33.516C15.1061 33.6212 15.0967 33.7281 15.065 33.8294C15.0333 33.9306 14.9802 34.0238 14.9091 34.1026C14.838 34.1813 14.7508 34.2438 14.6533 34.2857C14.5559 34.3275 14.4505 34.3478 14.3444 34.3452ZM24.5795 33.5098C24.5786 33.7313 24.49 33.9436 24.3331 34.1001C24.1763 34.2566 23.9639 34.3447 23.7423 34.3452H19.3863C19.1582 34.3405 18.9394 34.2541 18.7696 34.1018C18.5998 33.9495 18.4903 33.7413 18.4609 33.5151L18.1902 31C18.1764 30.8947 18.1855 30.7878 18.217 30.6864C18.2485 30.5851 18.3016 30.4917 18.3726 30.4129C18.4436 30.334 18.5309 30.2714 18.6284 30.2295C18.7259 30.1875 18.8313 30.1672 18.9374 30.1699H23.7423C23.964 30.1699 24.1767 30.2579 24.3337 30.4145C24.4906 30.5711 24.579 30.7836 24.5795 31.0053V33.5098ZM24.5795 25.9956C24.5786 26.2171 24.49 26.4294 24.3331 26.5859C24.1763 26.7424 23.9639 26.8305 23.7423 26.831H18.5785C18.1189 26.831 17.7039 26.4578 17.6522 26.0009L17.3833 23.4858C17.3696 23.3806 17.3789 23.2737 17.4104 23.1724C17.442 23.0711 17.4951 22.9778 17.566 22.899C17.637 22.8201 17.7242 22.7576 17.8216 22.7156C17.9191 22.6736 18.0244 22.6532 18.1305 22.6557H23.7423C23.964 22.6557 24.1767 22.7437 24.3337 22.9003C24.4906 23.0569 24.579 23.2694 24.5795 23.4911V25.9956ZM24.5795 18.4805C24.5786 18.7021 24.49 18.9143 24.3331 19.0708C24.1763 19.2273 23.9639 19.3154 23.7423 19.3159H17.7733C17.5451 19.3114 17.3261 19.2251 17.1561 19.0728C16.9861 18.9205 16.8765 18.7122 16.8471 18.4858L16.4873 15.1353C16.4738 15.03 16.4832 14.9231 16.5148 14.8218C16.5465 14.7205 16.5997 14.6273 16.6707 14.5484C16.7418 14.4696 16.829 14.4071 16.9265 14.3651C17.0239 14.3231 17.1293 14.3027 17.2354 14.3052H23.7432C23.9649 14.3052 24.1776 14.3932 24.3346 14.5498C24.4915 14.7064 24.5799 14.9189 24.5804 15.1406V18.4805H24.5795ZM33.6274 33.5151C33.5978 33.7414 33.4881 33.9496 33.3181 34.1019C33.1482 34.2542 32.9293 34.3405 32.7011 34.3452H28.7645C28.543 34.3447 28.3307 34.2566 28.174 34.1C28.0173 33.9435 27.929 33.7313 27.9282 33.5098V31.0044C27.9287 30.7829 28.017 30.5705 28.1738 30.4139C28.3305 30.2573 28.543 30.1693 28.7645 30.169H33.15C33.6095 30.169 33.948 30.5422 33.8981 30.9991L33.6274 33.5151ZM34.4343 26C34.4047 26.2263 34.295 26.4345 34.125 26.5868C33.9551 26.7391 33.7362 26.8254 33.508 26.8301H28.7645C28.543 26.8296 28.3307 26.7415 28.174 26.5849C28.0173 26.4284 27.929 26.2162 27.9282 25.9947V23.4893C27.9287 23.2678 28.017 23.0554 28.1738 22.8988C28.3305 22.7422 28.543 22.6542 28.7645 22.6539H33.9569C34.4173 22.6539 34.7549 23.0271 34.7041 23.484L34.4343 26ZM35.2412 18.4858C35.2116 18.7121 35.1019 18.9203 34.9319 19.0726C34.762 19.2249 34.5431 19.3112 34.3149 19.3159H28.7645C28.543 19.3154 28.3307 19.2273 28.174 19.0707C28.0173 18.9142 27.929 18.702 27.9282 18.4805V15.1406C27.9287 14.9191 28.017 14.7067 28.1738 14.5501C28.3305 14.3935 28.543 14.3055 28.7645 14.3052H34.8537C35.3142 14.3052 35.6517 14.6784 35.6028 15.1353L35.2412 18.4858ZM41.6822 34.3452V34.3389L41.675 34.3452H37.742C37.7162 34.3452 37.694 34.3327 37.6681 34.3291C37.6637 34.2989 37.6637 34.2686 37.6583 34.2365L37.6191 34.3185C37.63 34.3213 37.641 34.3237 37.6521 34.3256C37.2415 34.2784 36.9476 33.939 36.9948 33.5151L37.2638 31C37.2937 30.7739 37.4035 30.5659 37.5734 30.4136C37.7433 30.2614 37.962 30.175 38.19 30.1699H42.7108C43.1713 30.1699 43.4884 30.5404 43.4189 30.9955L43.0243 33.5196C42.9558 33.9738 42.5211 34.3452 42.0607 34.3452H41.6822Z" fill="black"/>
</svg>
