<svg width="59" height="59" viewBox="0 0 59 59" fill="none" xmlns="http://www.w3.org/2000/svg">
<path d="M55.2166 22.0494C54.9908 21.3386 54.8082 20.8371 54.7778 20.6537C54.3892 20.7524 53.9895 20.8007 53.5886 20.7975C52.8741 20.7975 52.0491 20.6592 51.1973 20.3135C49.2936 19.541 48.0481 18.0466 47.707 16.1522C47.4922 16.213 47.2037 16.2444 46.869 16.2444C45.7905 16.2444 44.2279 15.9189 43.0746 15.1962C40.8732 13.8171 40.4362 9.97284 40.4362 9.97284C37.9425 9.25102 36.0674 6.31761 36.367 3.82209C34.1315 3.22103 31.9227 1.84375 29.4991 1.84375C27.0718 1.84375 24.8593 3.22841 22.621 3.82578C20.3034 4.44528 17.6963 4.37153 15.67 5.54323C13.6124 6.73522 12.3808 9.03991 10.7113 10.7094C9.03991 12.3808 6.73522 13.6115 5.54508 15.6682C4.37153 17.6972 4.44712 20.3025 3.82762 22.62C3.23025 24.8584 1.84375 27.0736 1.84375 29.4991C1.84375 31.9255 3.23025 34.1389 3.82762 36.3781C4.44712 38.6939 4.37153 41.3009 5.54508 43.3281C6.73522 45.3857 9.03991 46.6174 10.7113 48.2869C12.3808 49.9564 13.6115 52.2629 15.67 53.4531C17.6963 54.6285 20.3034 54.5529 22.621 55.1724C24.8593 55.7716 27.0718 57.1562 29.4991 57.1562C31.9282 57.1562 34.1407 55.7716 36.3809 55.1724C38.6966 54.5529 41.3037 54.6285 43.33 53.4531C45.3876 52.2629 46.6192 49.9564 48.2887 48.2869C49.9601 46.6174 52.2648 45.3867 53.4549 43.3281C54.6285 41.3009 54.5529 38.6939 55.1724 36.3781C55.7697 34.138 57.1562 31.9255 57.1562 29.4991C57.1562 27.0736 55.2166 22.0494 55.2166 22.0494ZM54.2717 28.8953C54.1574 29.6475 53.5904 30.4541 52.9875 31.3078C52.3321 32.2389 51.5881 33.2954 51.2516 34.5592C51.023 35.4129 50.8921 36.2647 50.7658 37.0889C50.5676 38.3749 50.3814 39.5881 49.8633 40.4851C49.3332 41.3996 48.3708 42.1684 47.3521 42.9824C46.705 43.4996 46.0357 44.0324 45.4189 44.6501C44.8022 45.2659 44.2675 45.9361 43.7503 46.5842C42.9363 47.6019 42.1684 48.5625 41.2521 49.0945C40.3569 49.6135 39.1447 49.8006 37.8605 49.997C37.0354 50.1251 36.1827 50.256 35.3299 50.4846C34.5076 50.704 33.725 51.0101 32.9672 51.3097C31.7466 51.7891 30.5933 52.2408 29.4982 52.2408C28.403 52.2408 27.2506 51.7872 26.0291 51.3079C25.2732 51.011 24.4905 50.705 23.6701 50.4846C22.8155 50.256 21.9618 50.1242 21.1377 49.997C19.8526 49.8006 18.6403 49.6135 17.7433 49.0945C16.8279 48.5653 16.06 47.6019 15.2478 46.5842C14.7297 45.9361 14.195 45.2659 13.5783 44.6501C12.9616 44.0324 12.2923 43.4996 11.6451 42.9824C10.6274 42.1684 9.66494 41.3996 9.13486 40.4851C8.61584 39.5881 8.4287 38.3749 8.23142 37.0889C8.1042 36.2638 7.97422 35.4129 7.74652 34.5611C7.52711 33.736 7.21828 32.9515 6.92052 32.1919C6.44391 30.9732 5.99219 29.8227 5.99219 28.7321C5.99219 27.6387 6.44391 26.4864 6.92328 25.2677C7.22105 24.509 7.52895 23.7245 7.74928 22.9021C7.97698 22.0485 8.10789 21.1967 8.23419 20.3716C8.43239 19.0865 8.61861 17.8724 9.1367 16.9754C9.66678 16.06 10.6292 15.2921 11.6479 14.479C12.295 13.9618 12.9643 13.428 13.5811 12.8113C14.1978 12.1946 14.7325 11.5253 15.2506 10.8781C16.0637 9.86038 16.8316 8.89886 17.7452 8.36878C18.6422 7.84977 19.8553 7.66355 21.1404 7.46534C21.9655 7.33812 22.8183 7.20722 23.671 6.97859C24.4933 6.75919 25.2769 6.4522 26.0338 6.15444C27.2543 5.67598 28.4067 5.22427 29.5 5.22427C29.8153 5.22427 30.137 5.22242 30.4652 5.21966C30.7943 5.21781 31.129 5.21505 31.4654 5.21505C32.5127 5.21505 33.5867 5.23625 34.5629 5.35609C34.9206 7.82856 36.5791 10.1812 38.7999 11.3013C39.14 12.8242 40.0094 15.4515 42.0956 16.7588C43.4673 17.6189 45.1193 17.9932 46.3703 18.0724C47.1299 19.8415 48.5764 21.24 50.504 22.0227C51.4463 22.4089 52.4516 22.6186 53.4697 22.6412C53.9408 24.1402 54.611 26.6588 54.2717 28.8953ZM44.9239 8.71448L46.1915 9.98206L44.9239 11.2496L43.6563 9.98206L44.9239 8.71448ZM50.8423 15.7244L51.4849 16.3688L50.8396 17.0123L50.197 16.3679L50.8423 15.7244Z" fill="black"/>
<path d="M46.8368 12.1853L46.1943 12.8279L45.5508 12.1844L46.1933 11.5419L46.8368 12.1853ZM40.4326 5.93319L41.0742 6.57758L40.4289 7.22105L39.7863 6.57666L40.4326 5.93319ZM52.1302 19.3916L51.4858 18.7491L52.1275 18.1047L52.7728 18.7473L52.1302 19.3916ZM52.6068 15.7244L53.2494 16.3688L52.6041 17.0123L51.9615 16.3679L52.6068 15.7244ZM19.046 22.6901C19.6175 21.6982 20.3486 19.022 20.0739 18.3923C19.6719 17.4686 18.1324 15.6534 17.1257 15.6479C14.2458 15.635 11.5391 17.8844 10.8846 19.0091C9.99316 20.5412 11.3465 23.4746 13.1478 24.2213C15.8461 25.3433 17.4235 25.5101 19.046 22.6901ZM39.2489 29.5544C38.3924 29.7867 36.5275 30.8505 36.3339 31.3456C36.0463 32.0711 35.8969 33.9075 36.4454 34.4625C38.0154 36.0453 40.7285 36.297 41.702 36.0398C43.0285 35.6885 43.8923 33.3405 43.3171 31.9457C42.4533 29.8549 41.6808 28.9008 39.2489 29.5544ZM19.4064 39.6388C17.5931 40.3883 16.7643 41.0594 17.3322 43.1677C17.5332 43.9117 18.456 45.5286 18.8856 45.6973C19.5152 45.9463 21.1091 46.0753 21.5894 45.6005C22.963 44.2371 23.1815 41.8863 22.9575 41.04C22.6523 39.8895 20.6159 39.14 19.4064 39.6388ZM47.1032 23.5244C45.9518 23.8286 45.2023 25.866 45.702 27.0755C46.4515 28.8888 48.1901 29.1967 50.1215 28.1734C51.7541 27.3087 51.8656 24.3523 51.389 23.871C50.0274 22.4974 47.9486 23.3004 47.1032 23.5244ZM22.7925 16.673L20.945 14.8256L22.7925 12.9782L24.6399 14.8256L22.7925 16.673ZM13.5212 30.892L15.3695 29.0455L17.216 30.893L15.3686 32.7395L13.5212 30.892ZM33.8356 43.1779L31.9891 41.3304L33.8365 39.483L35.684 41.3304L33.8356 43.1779ZM31.9909 33.7065L34.48 36.1956L31.9909 38.6846L29.5019 36.1956L31.9909 33.7065ZM25.2815 11.5539L22.7934 9.06572L25.2825 6.57666L27.7706 9.06572L25.2815 11.5539ZM39.7872 44.5496L37.9398 42.7022L39.7872 40.8547L41.6347 42.7022L39.7872 44.5496ZM47.1042 34.3528L45.2567 32.5053L47.1042 30.6579L48.9516 32.5053L47.1042 34.3528ZM39.4996 21.7701L40.4215 22.692L39.4996 23.6138L38.5777 22.692L39.4996 21.7701ZM13.5221 36.1965L12.6002 35.2746L13.5221 34.3528L14.444 35.2746L13.5221 36.1965Z" fill="black"/>
</svg>
