<svg width="52" height="73" viewBox="0 0 60 73" fill="none" xmlns="http://www.w3.org/2000/svg">
<path d="M50.5671 7.8329C50.7371 8.00242 50.8719 8.20381 50.9639 8.42553C51.0559 8.64725 51.1033 8.88495 51.1033 9.125C51.1033 9.36505 51.0559 9.60274 50.9639 9.82446C50.8719 10.0462 50.7371 10.2476 50.5671 10.4171L46.3806 14.6H52.3082C52.8688 14.6002 53.4159 14.7725 53.8755 15.0937C54.335 15.4148 54.6849 15.8694 54.8778 16.3958L58.2248 25.5208C58.3764 25.9344 58.4258 26.3785 58.3691 26.8153C58.3123 27.2521 58.1509 27.6688 57.8987 28.03C57.6465 28.3911 57.3108 28.686 56.9203 28.8897C56.5297 29.0934 56.0957 29.1999 55.6552 29.2H54.4179L49.2166 59.63C48.9264 61.328 48.0451 62.8686 46.7285 63.9794C45.412 65.0902 43.745 65.6996 42.0225 65.7H30.9812C29.258 65.7005 27.5902 65.0914 26.2729 63.9805C24.9556 62.8697 24.0738 61.3286 23.7834 59.63L18.5822 29.2H17.3412C16.9001 29.1997 16.4656 29.0928 16.0747 28.8885C15.6839 28.6842 15.3481 28.3884 15.0962 28.0264C14.8442 27.6644 14.6834 27.2468 14.6275 26.8093C14.5716 26.3718 14.6223 25.9272 14.7752 25.5135L18.1442 16.3885C18.338 15.864 18.6878 15.4114 19.1466 15.0917C19.6053 14.772 20.151 14.6004 20.7101 14.6H41.3071C41.3874 14.4613 41.4856 14.3336 41.5991 14.2204L47.9866 7.8329C48.3288 7.49076 48.7929 7.29856 49.2769 7.29856C49.7608 7.29856 50.2249 7.49076 50.5671 7.8329ZM22.2869 29.2L27.3823 59.0168C27.5279 59.8658 27.969 60.6359 28.6276 61.191C29.2862 61.746 30.1199 62.0503 30.9812 62.05H42.0225C42.8832 62.0495 43.716 61.7448 44.3739 61.1898C45.0317 60.6348 45.4723 59.8652 45.6177 59.0168L50.7168 29.2H22.2833H22.2869ZM18.6515 25.55H54.3485L51.6694 18.25H21.3525L18.6515 25.55Z" fill="black"/>
</svg>
