<svg width="36" height="37" viewBox="0 0 36 37" fill="none" xmlns="http://www.w3.org/2000/svg">
<path d="M18 3.08334C16.5166 3.08334 15.0666 3.53543 13.8332 4.38243C12.5999 5.22943 11.6386 6.43331 11.0709 7.84183C10.5032 9.25034 10.3547 10.8002 10.6441 12.2955C10.9335 13.7908 11.6478 15.1643 12.6967 16.2423C13.7456 17.3203 15.082 18.0545 16.5368 18.3519C17.9917 18.6493 19.4997 18.4967 20.8701 17.9132C22.2406 17.3298 23.4119 16.3418 24.236 15.0742C25.0601 13.8066 25.5 12.3162 25.5 10.7917C25.5 8.7473 24.7098 6.78665 23.3033 5.34106C21.8968 3.89547 19.9891 3.08334 18 3.08334ZM18 15.4167C17.11 15.4167 16.24 15.1454 15.4999 14.6372C14.7599 14.129 14.1831 13.4067 13.8425 12.5616C13.5019 11.7165 13.4128 10.7865 13.5865 9.88938C13.7601 8.99222 14.1887 8.16813 14.818 7.52131C15.4474 6.87449 16.2492 6.434 17.1221 6.25555C17.995 6.07709 18.8998 6.16868 19.7221 6.51873C20.5443 6.86879 21.2471 7.46159 21.7416 8.22216C22.2361 8.98274 22.5 9.87694 22.5 10.7917C22.5 12.0183 22.0259 13.1947 21.182 14.062C20.3381 14.9294 19.1935 15.4167 18 15.4167ZM31.5 32.375V30.8333C31.5 27.9712 30.3938 25.2263 28.4246 23.2025C26.4555 21.1787 23.7848 20.0417 21 20.0417H15C12.2152 20.0417 9.54451 21.1787 7.57538 23.2025C5.60625 25.2263 4.5 27.9712 4.5 30.8333V32.375H7.5V30.8333C7.5 28.789 8.29018 26.8283 9.6967 25.3827C11.1032 23.9371 13.0109 23.125 15 23.125H21C22.9891 23.125 24.8968 23.9371 26.3033 25.3827C27.7098 26.8283 28.5 28.789 28.5 30.8333V32.375H31.5Z" fill="black"/>
</svg>
