<svg width="186" height="33" viewBox="0 0 186 33" fill="none" xmlns="http://www.w3.org/2000/svg">
<path d="M12.1689 32.5751H5.32893L1.52893 5.13508H7.96893L10.2889 23.0951H10.4889L17.8889 5.13508H24.0889L26.4089 23.0951H26.6089L33.9689 5.13508H39.8089L28.2089 32.5751H21.4489L19.2889 16.0951H19.0489L12.1689 32.5751Z" fill="black"/>
<path d="M58.3667 12.1351C56.9267 22.1084 56.2067 27.3618 56.2067 27.8951C56.2067 28.2418 56.2867 28.5084 56.4467 28.6951C56.6334 28.8818 56.8867 28.9751 57.2067 28.9751C57.4734 28.9751 57.7667 28.9218 58.0867 28.8151C58.4067 28.7084 58.6734 28.5751 58.8867 28.4151L58.3267 32.1351C57.8734 32.3751 57.3134 32.5751 56.6467 32.7351C56.0067 32.8951 55.3667 32.9751 54.7267 32.9751C52.1134 32.9751 50.7001 31.9618 50.4867 29.9351C49.6867 30.8684 48.7401 31.6151 47.6467 32.1751C46.5801 32.7084 45.4334 32.9751 44.2067 32.9751C41.9934 32.9751 40.2867 32.2684 39.0867 30.8551C37.9134 29.4418 37.3267 27.4684 37.3267 24.9351C37.3267 22.5084 37.7134 20.2951 38.4867 18.2951C39.2867 16.2951 40.4067 14.7084 41.8467 13.5351C43.3134 12.3351 45.0201 11.7351 46.9667 11.7351C48.1934 11.7351 49.2867 12.0018 50.2467 12.5351C51.2334 13.0418 51.9934 13.7484 52.5267 14.6551H52.7667L54.0867 12.1351H58.3667ZM50.8467 24.1351C51.2201 21.4684 51.4067 19.9884 51.4067 19.6951C51.4067 18.4951 51.1134 17.5751 50.5267 16.9351C49.9401 16.2951 49.1534 15.9751 48.1667 15.9751C47.0201 15.9751 46.0334 16.3884 45.2067 17.2151C44.4067 18.0418 43.8867 19.2418 43.6467 20.8151C43.2734 23.4818 43.0867 24.9618 43.0867 25.2551C43.0867 26.4551 43.3801 27.3751 43.9667 28.0151C44.5534 28.6551 45.3401 28.9751 46.3267 28.9751C47.4467 28.9751 48.4201 28.5618 49.2467 27.7351C50.0734 26.9084 50.6067 25.7084 50.8467 24.1351Z" fill="black"/>
<path d="M80.593 26.9751L80.433 28.0151C80.433 28.3351 80.5397 28.5751 80.753 28.7351C80.9663 28.8951 81.2063 28.9751 81.473 28.9751C81.7397 28.9751 82.033 28.9218 82.353 28.8151C82.6997 28.7084 82.9663 28.6151 83.153 28.5351L82.673 32.1351C81.553 32.6951 80.3397 32.9751 79.033 32.9751C76.3663 32.9751 74.953 32.0018 74.793 30.0551C72.8463 32.0018 70.6597 32.9751 68.233 32.9751C66.3663 32.9751 64.8463 32.5218 63.673 31.6151C62.4997 30.6818 61.913 29.3351 61.913 27.5751C61.913 27.2284 62.0597 25.9884 62.353 23.8551C62.6463 21.7218 63.193 17.8151 63.993 12.1351H69.833C68.5797 20.9351 67.953 25.4818 67.953 25.7751C67.953 26.7618 68.193 27.5084 68.673 28.0151C69.153 28.4951 69.833 28.7351 70.713 28.7351C71.753 28.7351 72.6997 28.3484 73.553 27.5751C74.4063 26.7751 74.913 25.8151 75.073 24.6951L76.833 12.1351H82.673L80.593 26.9751Z" fill="black"/>
<path d="M98.0452 32.5751L94.1252 25.8951L91.5652 28.0951L90.9252 32.5751H85.0852L89.1252 3.77509H94.9652L92.4452 21.6551L100.965 12.1351H107.565L98.6852 21.7351L105.005 32.5751H98.0452Z" fill="black"/>
<path d="M128.146 24.9351C127.906 26.7218 127.266 28.2284 126.226 29.4551C125.213 30.6551 123.959 31.5484 122.466 32.1351C120.999 32.6951 119.439 32.9751 117.786 32.9751H117.146C114.533 32.9751 112.426 32.2418 110.826 30.7751C109.226 29.3084 108.426 27.2818 108.426 24.6951C108.426 22.1884 108.893 19.9618 109.826 18.0151C110.786 16.0418 112.146 14.5084 113.906 13.4151C115.693 12.2951 117.773 11.7351 120.146 11.7351H120.786C122.306 11.7351 123.679 12.0284 124.906 12.6151C126.159 13.1751 127.146 14.0018 127.866 15.0951C128.586 16.1884 128.946 17.4818 128.946 18.9751C128.946 19.2684 128.919 19.7084 128.866 20.2951L128.426 23.3351H114.426C114.373 23.5484 114.319 23.8551 114.266 24.2551C114.239 24.6284 114.226 24.9218 114.226 25.1351C114.226 26.2818 114.559 27.2151 115.226 27.9351C115.893 28.6284 116.826 28.9751 118.026 28.9751C119.253 28.9751 120.266 28.6418 121.066 27.9751C121.866 27.2818 122.359 26.2684 122.546 24.9351H128.146ZM119.626 15.7351C118.453 15.7351 117.439 16.1484 116.586 16.9751C115.733 17.8018 115.159 18.8551 114.866 20.1351H122.946C122.999 19.6551 123.026 19.2951 123.026 19.0551C123.026 16.8418 121.893 15.7351 119.626 15.7351Z" fill="black"/>
<path d="M151.505 24.9351C151.265 26.7218 150.625 28.2284 149.585 29.4551C148.572 30.6551 147.319 31.5484 145.826 32.1351C144.359 32.6951 142.799 32.9751 141.145 32.9751H140.505C137.892 32.9751 135.785 32.2418 134.185 30.7751C132.585 29.3084 131.785 27.2818 131.785 24.6951C131.785 22.1884 132.252 19.9618 133.185 18.0151C134.145 16.0418 135.505 14.5084 137.265 13.4151C139.052 12.2951 141.132 11.7351 143.505 11.7351H144.145C145.665 11.7351 147.039 12.0284 148.265 12.6151C149.519 13.1751 150.505 14.0018 151.225 15.0951C151.945 16.1884 152.305 17.4818 152.305 18.9751C152.305 19.2684 152.279 19.7084 152.225 20.2951L151.785 23.3351H137.785C137.732 23.5484 137.679 23.8551 137.625 24.2551C137.599 24.6284 137.585 24.9218 137.585 25.1351C137.585 26.2818 137.919 27.2151 138.585 27.9351C139.252 28.6284 140.185 28.9751 141.385 28.9751C142.612 28.9751 143.625 28.6418 144.425 27.9751C145.225 27.2818 145.719 26.2684 145.905 24.9351H151.505ZM142.985 15.7351C141.812 15.7351 140.799 16.1484 139.945 16.9751C139.092 17.8018 138.519 18.8551 138.225 20.1351H146.305C146.359 19.6551 146.385 19.2951 146.385 19.0551C146.385 16.8418 145.252 15.7351 142.985 15.7351Z" fill="black"/>
<path d="M156.665 16.7751L158.745 11.0151H156.225L157.065 5.13508H162.905L162.225 10.0551L159.585 16.7751H156.665Z" fill="black"/>
<path d="M170.479 26.7351C170.479 27.5351 170.852 28.1084 171.599 28.4551C172.345 28.8018 173.292 28.9751 174.439 28.9751C175.585 28.9751 176.599 28.8018 177.479 28.4551C178.385 28.1084 178.839 27.5351 178.839 26.7351C178.839 26.0951 178.479 25.6418 177.759 25.3751C177.065 25.0818 175.959 24.8018 174.439 24.5351C172.919 24.2951 171.652 24.0151 170.639 23.6951C169.652 23.3751 168.799 22.8684 168.079 22.1751C167.385 21.4551 167.039 20.4684 167.039 19.2151C167.039 17.6151 167.505 16.2551 168.439 15.1351C169.372 14.0151 170.585 13.1751 172.079 12.6151C173.599 12.0284 175.212 11.7351 176.919 11.7351H177.719C179.025 11.7351 180.252 11.9484 181.399 12.3751C182.545 12.7751 183.465 13.3484 184.159 14.0951C184.852 14.8418 185.199 15.7084 185.199 16.6951C185.199 17.1484 185.159 17.4951 185.079 17.7351C184.999 17.9751 184.959 18.1084 184.959 18.1351H179.839L179.879 17.7351C179.879 16.4018 178.759 15.7351 176.519 15.7351C175.319 15.7351 174.345 15.9218 173.599 16.2951C172.879 16.6418 172.519 17.1218 172.519 17.7351C172.519 18.3218 172.852 18.7351 173.519 18.9751C174.212 19.2151 175.305 19.4551 176.799 19.6951C178.399 19.9618 179.692 20.2418 180.679 20.5351C181.692 20.8284 182.572 21.3351 183.319 22.0551C184.065 22.7751 184.439 23.7884 184.439 25.0951C184.439 27.8418 183.452 29.8418 181.479 31.0951C179.505 32.3484 177.119 32.9751 174.319 32.9751H172.999C170.679 32.9751 168.799 32.4951 167.359 31.5351C165.945 30.5484 165.239 29.2418 165.239 27.6151C165.239 27.1084 165.292 26.5884 165.399 26.0551H170.519L170.479 26.7351Z" fill="black"/>
<path d="M10.64 28.8H3.8L0 1.36H6.44L8.76 19.32H8.96L16.36 1.36H22.56L24.88 19.32H25.08L32.44 1.36H38.28L26.68 28.8H19.92L17.76 12.32H17.52L10.64 28.8Z" fill="white"/>
<path d="M56.8378 8.36C55.3978 18.3333 54.6778 23.5867 54.6778 24.12C54.6778 24.4667 54.7578 24.7333 54.9178 24.92C55.1045 25.1067 55.3578 25.2 55.6778 25.2C55.9445 25.2 56.2378 25.1467 56.5578 25.04C56.8778 24.9333 57.1445 24.8 57.3578 24.64L56.7978 28.36C56.3445 28.6 55.7845 28.8 55.1178 28.96C54.4778 29.12 53.8378 29.2 53.1978 29.2C50.5845 29.2 49.1711 28.1867 48.9578 26.16C48.1578 27.0933 47.2111 27.84 46.1178 28.4C45.0511 28.9333 43.9045 29.2 42.6778 29.2C40.4645 29.2 38.7578 28.4933 37.5578 27.08C36.3845 25.6667 35.7978 23.6933 35.7978 21.16C35.7978 18.7333 36.1845 16.52 36.9578 14.52C37.7578 12.52 38.8778 10.9333 40.3178 9.76C41.7845 8.56 43.4911 7.96 45.4378 7.96C46.6645 7.96 47.7578 8.22667 48.7178 8.76C49.7045 9.26667 50.4645 9.97333 50.9978 10.88H51.2378L52.5578 8.36H56.8378ZM49.3178 20.36C49.6911 17.6933 49.8778 16.2133 49.8778 15.92C49.8778 14.72 49.5845 13.8 48.9978 13.16C48.4111 12.52 47.6245 12.2 46.6378 12.2C45.4911 12.2 44.5045 12.6133 43.6778 13.44C42.8778 14.2667 42.3578 15.4667 42.1178 17.04C41.7445 19.7067 41.5578 21.1867 41.5578 21.48C41.5578 22.68 41.8511 23.6 42.4378 24.24C43.0245 24.88 43.8111 25.2 44.7978 25.2C45.9178 25.2 46.8911 24.7867 47.7178 23.96C48.5445 23.1333 49.0778 21.9333 49.3178 20.36Z" fill="white"/>
<path d="M79.0641 23.2L78.9041 24.24C78.9041 24.56 79.0107 24.8 79.2241 24.96C79.4374 25.12 79.6774 25.2 79.9441 25.2C80.2107 25.2 80.5041 25.1467 80.8241 25.04C81.1707 24.9333 81.4374 24.84 81.6241 24.76L81.1441 28.36C80.0241 28.92 78.8107 29.2 77.5041 29.2C74.8374 29.2 73.4241 28.2267 73.2641 26.28C71.3174 28.2267 69.1307 29.2 66.7041 29.2C64.8374 29.2 63.3174 28.7467 62.1441 27.84C60.9707 26.9067 60.3841 25.56 60.3841 23.8C60.3841 23.4533 60.5307 22.2133 60.8241 20.08C61.1174 17.9467 61.6641 14.04 62.4641 8.36H68.3041C67.0507 17.16 66.4241 21.7067 66.4241 22C66.4241 22.9867 66.6641 23.7333 67.1441 24.24C67.6241 24.72 68.3041 24.96 69.1841 24.96C70.2241 24.96 71.1707 24.5733 72.0241 23.8C72.8774 23 73.3841 22.04 73.5441 20.92L75.3041 8.36H81.1441L79.0641 23.2Z" fill="white"/>
<path d="M96.5163 28.8L92.5963 22.12L90.0362 24.32L89.3962 28.8H83.5563L87.5963 0H93.4362L90.9163 17.88L99.4362 8.36H106.036L97.1562 17.96L103.476 28.8H96.5163Z" fill="white"/>
<path d="M126.617 21.16C126.377 22.9467 125.737 24.4533 124.697 25.68C123.684 26.88 122.431 27.7733 120.937 28.36C119.471 28.92 117.911 29.2 116.257 29.2H115.617C113.004 29.2 110.897 28.4667 109.297 27C107.697 25.5333 106.897 23.5067 106.897 20.92C106.897 18.4133 107.364 16.1867 108.297 14.24C109.257 12.2667 110.617 10.7333 112.377 9.64C114.164 8.52 116.244 7.96 118.617 7.96H119.257C120.777 7.96 122.151 8.25333 123.377 8.84C124.631 9.4 125.617 10.2267 126.337 11.32C127.057 12.4133 127.417 13.7067 127.417 15.2C127.417 15.4933 127.391 15.9333 127.337 16.52L126.897 19.56H112.897C112.844 19.7733 112.791 20.08 112.737 20.48C112.711 20.8533 112.697 21.1467 112.697 21.36C112.697 22.5067 113.031 23.44 113.697 24.16C114.364 24.8533 115.297 25.2 116.497 25.2C117.724 25.2 118.737 24.8667 119.537 24.2C120.337 23.5067 120.831 22.4933 121.017 21.16H126.617ZM118.097 11.96C116.924 11.96 115.911 12.3733 115.057 13.2C114.204 14.0267 113.631 15.08 113.337 16.36H121.417C121.471 15.88 121.497 15.52 121.497 15.28C121.497 13.0667 120.364 11.96 118.097 11.96Z" fill="white"/>
<path d="M149.977 21.16C149.737 22.9467 149.097 24.4533 148.057 25.68C147.043 26.88 145.79 27.7733 144.297 28.36C142.83 28.92 141.27 29.2 139.617 29.2H138.977C136.363 29.2 134.257 28.4667 132.657 27C131.057 25.5333 130.257 23.5067 130.257 20.92C130.257 18.4133 130.723 16.1867 131.657 14.24C132.617 12.2667 133.977 10.7333 135.737 9.64C137.523 8.52 139.603 7.96 141.977 7.96H142.617C144.137 7.96 145.51 8.25333 146.737 8.84C147.99 9.4 148.977 10.2267 149.697 11.32C150.417 12.4133 150.777 13.7067 150.777 15.2C150.777 15.4933 150.75 15.9333 150.697 16.52L150.257 19.56H136.257C136.203 19.7733 136.15 20.08 136.097 20.48C136.07 20.8533 136.057 21.1467 136.057 21.36C136.057 22.5067 136.39 23.44 137.057 24.16C137.723 24.8533 138.657 25.2 139.857 25.2C141.083 25.2 142.097 24.8667 142.897 24.2C143.697 23.5067 144.19 22.4933 144.377 21.16H149.977ZM141.457 11.96C140.283 11.96 139.27 12.3733 138.417 13.2C137.563 14.0267 136.99 15.08 136.697 16.36H144.777C144.83 15.88 144.857 15.52 144.857 15.28C144.857 13.0667 143.723 11.96 141.457 11.96Z" fill="white"/>
<path d="M155.136 13L157.216 7.24H154.696L155.536 1.36H161.376L160.696 6.28L158.056 13H155.136Z" fill="white"/>
<path d="M168.95 22.96C168.95 23.76 169.323 24.3333 170.07 24.68C170.816 25.0267 171.763 25.2 172.91 25.2C174.056 25.2 175.07 25.0267 175.95 24.68C176.856 24.3333 177.31 23.76 177.31 22.96C177.31 22.32 176.95 21.8667 176.23 21.6C175.536 21.3067 174.43 21.0267 172.91 20.76C171.39 20.52 170.123 20.24 169.11 19.92C168.123 19.6 167.27 19.0933 166.55 18.4C165.856 17.68 165.51 16.6933 165.51 15.44C165.51 13.84 165.976 12.48 166.91 11.36C167.843 10.24 169.056 9.4 170.55 8.84C172.07 8.25333 173.683 7.96 175.39 7.96H176.19C177.496 7.96 178.723 8.17333 179.87 8.6C181.016 9 181.936 9.57333 182.63 10.32C183.323 11.0667 183.67 11.9333 183.67 12.92C183.67 13.3733 183.63 13.72 183.55 13.96C183.47 14.2 183.43 14.3333 183.43 14.36H178.31L178.35 13.96C178.35 12.6267 177.23 11.96 174.99 11.96C173.79 11.96 172.816 12.1467 172.07 12.52C171.35 12.8667 170.99 13.3467 170.99 13.96C170.99 14.5467 171.323 14.96 171.99 15.2C172.683 15.44 173.776 15.68 175.27 15.92C176.87 16.1867 178.163 16.4667 179.15 16.76C180.163 17.0533 181.043 17.56 181.79 18.28C182.536 19 182.91 20.0133 182.91 21.32C182.91 24.0667 181.923 26.0667 179.95 27.32C177.976 28.5733 175.59 29.2 172.79 29.2H171.47C169.15 29.2 167.27 28.72 165.83 27.76C164.416 26.7733 163.71 25.4667 163.71 23.84C163.71 23.3333 163.763 22.8133 163.87 22.28H168.99L168.95 22.96Z" fill="white"/>
</svg>
