<svg width="355" height="87" viewBox="0 0 355 93" fill="none" xmlns="http://www.w3.org/2000/svg">
<path d="M28.2698 74H15.4448L8.31982 22.55H20.3948L24.7448 56.225H25.1198L33.2198 36.575L38.9948 22.55H50.6198L54.9698 56.225H55.3448L69.1448 22.55H80.0948L58.3448 74H45.6698L41.6198 43.1H41.1698L28.2698 74ZM114.891 35.675C112.191 54.375 110.841 64.225 110.841 65.225C110.841 65.875 110.991 66.375 111.291 66.725C111.641 67.075 112.116 67.25 112.716 67.25C113.216 67.25 113.766 67.15 114.366 66.95C114.966 66.75 115.466 66.5 115.866 66.2L114.816 73.175C113.966 73.625 112.916 74 111.666 74.3C110.466 74.6 109.266 74.75 108.066 74.75C103.166 74.75 100.516 72.85 100.116 69.05C98.6157 70.8 96.8407 72.2 94.7907 73.25C92.7907 74.25 90.6407 74.75 88.3407 74.75C84.1907 74.75 80.9907 73.425 78.7407 70.775C76.5407 68.125 75.4407 64.425 75.4407 59.675C75.4407 55.125 76.1657 50.975 77.6157 47.225C79.1157 43.475 81.2157 40.5 83.9157 38.3C86.6657 36.05 89.8657 34.925 93.5157 34.925C95.8157 34.925 97.8657 35.425 99.6657 36.425C101.516 37.375 102.941 38.7 103.941 40.4H104.391L106.866 35.675H114.891ZM100.791 58.175C101.491 53.175 101.841 50.4 101.841 49.85C101.841 47.6 101.291 45.875 100.191 44.675C99.0907 43.475 97.6157 42.875 95.7657 42.875C93.6157 42.875 91.7657 43.65 90.2157 45.2C88.7157 46.75 87.7407 49 87.2907 51.95C86.5907 56.95 86.2407 59.725 86.2407 60.275C86.2407 62.525 86.7907 64.25 87.8907 65.45C88.9907 66.65 90.4657 67.25 92.3157 67.25C94.4157 67.25 96.2407 66.475 97.7907 64.925C99.3407 63.375 100.341 61.125 100.791 58.175ZM156.565 63.5L156.265 65.45C156.265 66.05 156.465 66.5 156.865 66.8C157.265 67.1 157.715 67.25 158.215 67.25C158.715 67.25 159.265 67.15 159.865 66.95C160.515 66.75 161.015 66.575 161.365 66.425L160.465 73.175C158.365 74.225 156.09 74.75 153.64 74.75C148.64 74.75 145.99 72.925 145.69 69.275C142.04 72.925 137.94 74.75 133.39 74.75C129.89 74.75 127.04 73.9 124.84 72.2C122.64 70.45 121.54 67.925 121.54 64.625C121.54 63.975 121.815 61.65 122.365 57.65C122.915 53.65 123.94 46.325 125.44 35.675H136.39C134.04 52.175 132.865 60.7 132.865 61.25C132.865 63.1 133.315 64.5 134.215 65.45C135.115 66.35 136.39 66.8 138.04 66.8C139.99 66.8 141.765 66.075 143.365 64.625C144.965 63.125 145.915 61.325 146.215 59.225L149.515 35.675H160.465L156.565 63.5ZM189.288 74L181.938 61.475L177.138 65.6L175.938 74H164.988L172.563 20H183.513L178.788 53.525L194.763 35.675H207.138L190.488 53.675L202.338 74H189.288ZM245.727 59.675C245.277 63.025 244.077 65.85 242.127 68.15C240.227 70.4 237.877 72.075 235.077 73.175C232.327 74.225 229.402 74.75 226.302 74.75H225.102C220.202 74.75 216.252 73.375 213.252 70.625C210.252 67.875 208.752 64.075 208.752 59.225C208.752 54.525 209.627 50.35 211.377 46.7C213.177 43 215.727 40.125 219.027 38.075C222.377 35.975 226.277 34.925 230.727 34.925H231.927C234.777 34.925 237.352 35.475 239.652 36.575C242.002 37.625 243.852 39.175 245.202 41.225C246.552 43.275 247.227 45.7 247.227 48.5C247.227 49.05 247.177 49.875 247.077 50.975L246.252 56.675H220.002C219.902 57.075 219.802 57.65 219.702 58.4C219.652 59.1 219.627 59.65 219.627 60.05C219.627 62.2 220.252 63.95 221.502 65.3C222.752 66.6 224.502 67.25 226.752 67.25C229.052 67.25 230.952 66.625 232.452 65.375C233.952 64.075 234.877 62.175 235.227 59.675H245.727ZM229.752 42.425C227.552 42.425 225.652 43.2 224.052 44.75C222.452 46.3 221.377 48.275 220.827 50.675H235.977C236.077 49.775 236.127 49.1 236.127 48.65C236.127 44.5 234.002 42.425 229.752 42.425ZM289.526 59.675C289.076 63.025 287.876 65.85 285.926 68.15C284.026 70.4 281.676 72.075 278.876 73.175C276.126 74.225 273.201 74.75 270.101 74.75H268.901C264.001 74.75 260.051 73.375 257.051 70.625C254.051 67.875 252.551 64.075 252.551 59.225C252.551 54.525 253.426 50.35 255.176 46.7C256.976 43 259.526 40.125 262.826 38.075C266.176 35.975 270.076 34.925 274.526 34.925H275.726C278.576 34.925 281.151 35.475 283.451 36.575C285.801 37.625 287.651 39.175 289.001 41.225C290.351 43.275 291.026 45.7 291.026 48.5C291.026 49.05 290.976 49.875 290.876 50.975L290.051 56.675H263.801C263.701 57.075 263.601 57.65 263.501 58.4C263.451 59.1 263.426 59.65 263.426 60.05C263.426 62.2 264.051 63.95 265.301 65.3C266.551 66.6 268.301 67.25 270.551 67.25C272.851 67.25 274.751 66.625 276.251 65.375C277.751 64.075 278.676 62.175 279.026 59.675H289.526ZM273.551 42.425C271.351 42.425 269.451 43.2 267.851 44.75C266.251 46.3 265.176 48.275 264.626 50.675H279.776C279.876 49.775 279.926 49.1 279.926 48.65C279.926 44.5 277.801 42.425 273.551 42.425ZM299.2 44.375L303.1 33.575H298.375L299.95 22.55H310.9L309.625 31.775L304.675 44.375H299.2ZM325.1 63.05C325.1 64.55 325.8 65.625 327.2 66.275C328.6 66.925 330.375 67.25 332.525 67.25C334.675 67.25 336.575 66.925 338.225 66.275C339.925 65.625 340.775 64.55 340.775 63.05C340.775 61.85 340.1 61 338.75 60.5C337.45 59.95 335.375 59.425 332.525 58.925C329.675 58.475 327.3 57.95 325.4 57.35C323.55 56.75 321.95 55.8 320.6 54.5C319.3 53.15 318.65 51.3 318.65 48.95C318.65 45.95 319.525 43.4 321.275 41.3C323.025 39.2 325.3 37.625 328.1 36.575C330.95 35.475 333.975 34.925 337.175 34.925H338.675C341.125 34.925 343.425 35.325 345.575 36.125C347.725 36.875 349.45 37.95 350.75 39.35C352.05 40.75 352.7 42.375 352.7 44.225C352.7 45.075 352.625 45.725 352.475 46.175C352.325 46.625 352.25 46.875 352.25 46.925H342.65L342.725 46.175C342.725 43.675 340.625 42.425 336.425 42.425C334.175 42.425 332.35 42.775 330.95 43.475C329.6 44.125 328.925 45.025 328.925 46.175C328.925 47.275 329.55 48.05 330.8 48.5C332.1 48.95 334.15 49.4 336.95 49.85C339.95 50.35 342.375 50.875 344.225 51.425C346.125 51.975 347.775 52.925 349.175 54.275C350.575 55.625 351.275 57.525 351.275 59.975C351.275 65.125 349.425 68.875 345.725 71.225C342.025 73.575 337.55 74.75 332.3 74.75H329.825C325.475 74.75 321.95 73.85 319.25 72.05C316.6 70.2 315.275 67.75 315.275 64.7C315.275 63.75 315.375 62.775 315.575 61.775H325.175L325.1 63.05Z" fill="black"/>
<path d="M24.2698 70H11.4448L4.31982 18.55H16.3948L20.7448 52.225H21.1198L29.2198 32.575L34.9948 18.55H46.6198L50.9698 52.225H51.3448L65.1448 18.55H76.0948L54.3448 70H41.6698L37.6198 39.1H37.1698L24.2698 70ZM110.891 31.675C108.191 50.375 106.841 60.225 106.841 61.225C106.841 61.875 106.991 62.375 107.291 62.725C107.641 63.075 108.116 63.25 108.716 63.25C109.216 63.25 109.766 63.15 110.366 62.95C110.966 62.75 111.466 62.5 111.866 62.2L110.816 69.175C109.966 69.625 108.916 70 107.666 70.3C106.466 70.6 105.266 70.75 104.066 70.75C99.1657 70.75 96.5157 68.85 96.1157 65.05C94.6157 66.8 92.8407 68.2 90.7907 69.25C88.7907 70.25 86.6407 70.75 84.3407 70.75C80.1907 70.75 76.9907 69.425 74.7407 66.775C72.5407 64.125 71.4407 60.425 71.4407 55.675C71.4407 51.125 72.1657 46.975 73.6157 43.225C75.1157 39.475 77.2157 36.5 79.9157 34.3C82.6657 32.05 85.8657 30.925 89.5157 30.925C91.8157 30.925 93.8657 31.425 95.6657 32.425C97.5157 33.375 98.9407 34.7 99.9407 36.4H100.391L102.866 31.675H110.891ZM96.7907 54.175C97.4907 49.175 97.8407 46.4 97.8407 45.85C97.8407 43.6 97.2907 41.875 96.1907 40.675C95.0907 39.475 93.6157 38.875 91.7657 38.875C89.6157 38.875 87.7657 39.65 86.2157 41.2C84.7157 42.75 83.7407 45 83.2907 47.95C82.5907 52.95 82.2407 55.725 82.2407 56.275C82.2407 58.525 82.7907 60.25 83.8907 61.45C84.9907 62.65 86.4657 63.25 88.3157 63.25C90.4157 63.25 92.2407 62.475 93.7907 60.925C95.3407 59.375 96.3407 57.125 96.7907 54.175ZM152.565 59.5L152.265 61.45C152.265 62.05 152.465 62.5 152.865 62.8C153.265 63.1 153.715 63.25 154.215 63.25C154.715 63.25 155.265 63.15 155.865 62.95C156.515 62.75 157.015 62.575 157.365 62.425L156.465 69.175C154.365 70.225 152.09 70.75 149.64 70.75C144.64 70.75 141.99 68.925 141.69 65.275C138.04 68.925 133.94 70.75 129.39 70.75C125.89 70.75 123.04 69.9 120.84 68.2C118.64 66.45 117.54 63.925 117.54 60.625C117.54 59.975 117.815 57.65 118.365 53.65C118.915 49.65 119.94 42.325 121.44 31.675H132.39C130.04 48.175 128.865 56.7 128.865 57.25C128.865 59.1 129.315 60.5 130.215 61.45C131.115 62.35 132.39 62.8 134.04 62.8C135.99 62.8 137.765 62.075 139.365 60.625C140.965 59.125 141.915 57.325 142.215 55.225L145.515 31.675H156.465L152.565 59.5ZM185.288 70L177.938 57.475L173.138 61.6L171.938 70H160.988L168.563 16H179.513L174.788 49.525L190.763 31.675H203.138L186.488 49.675L198.338 70H185.288ZM241.727 55.675C241.277 59.025 240.077 61.85 238.127 64.15C236.227 66.4 233.877 68.075 231.077 69.175C228.327 70.225 225.402 70.75 222.302 70.75H221.102C216.202 70.75 212.252 69.375 209.252 66.625C206.252 63.875 204.752 60.075 204.752 55.225C204.752 50.525 205.627 46.35 207.377 42.7C209.177 39 211.727 36.125 215.027 34.075C218.377 31.975 222.277 30.925 226.727 30.925H227.927C230.777 30.925 233.352 31.475 235.652 32.575C238.002 33.625 239.852 35.175 241.202 37.225C242.552 39.275 243.227 41.7 243.227 44.5C243.227 45.05 243.177 45.875 243.077 46.975L242.252 52.675H216.002C215.902 53.075 215.802 53.65 215.702 54.4C215.652 55.1 215.627 55.65 215.627 56.05C215.627 58.2 216.252 59.95 217.502 61.3C218.752 62.6 220.502 63.25 222.752 63.25C225.052 63.25 226.952 62.625 228.452 61.375C229.952 60.075 230.877 58.175 231.227 55.675H241.727ZM225.752 38.425C223.552 38.425 221.652 39.2 220.052 40.75C218.452 42.3 217.377 44.275 216.827 46.675H231.977C232.077 45.775 232.127 45.1 232.127 44.65C232.127 40.5 230.002 38.425 225.752 38.425ZM285.526 55.675C285.076 59.025 283.876 61.85 281.926 64.15C280.026 66.4 277.676 68.075 274.876 69.175C272.126 70.225 269.201 70.75 266.101 70.75H264.901C260.001 70.75 256.051 69.375 253.051 66.625C250.051 63.875 248.551 60.075 248.551 55.225C248.551 50.525 249.426 46.35 251.176 42.7C252.976 39 255.526 36.125 258.826 34.075C262.176 31.975 266.076 30.925 270.526 30.925H271.726C274.576 30.925 277.151 31.475 279.451 32.575C281.801 33.625 283.651 35.175 285.001 37.225C286.351 39.275 287.026 41.7 287.026 44.5C287.026 45.05 286.976 45.875 286.876 46.975L286.051 52.675H259.801C259.701 53.075 259.601 53.65 259.501 54.4C259.451 55.1 259.426 55.65 259.426 56.05C259.426 58.2 260.051 59.95 261.301 61.3C262.551 62.6 264.301 63.25 266.551 63.25C268.851 63.25 270.751 62.625 272.251 61.375C273.751 60.075 274.676 58.175 275.026 55.675H285.526ZM269.551 38.425C267.351 38.425 265.451 39.2 263.851 40.75C262.251 42.3 261.176 44.275 260.626 46.675H275.776C275.876 45.775 275.926 45.1 275.926 44.65C275.926 40.5 273.801 38.425 269.551 38.425ZM295.2 40.375L299.1 29.575H294.375L295.95 18.55H306.9L305.625 27.775L300.675 40.375H295.2ZM321.1 59.05C321.1 60.55 321.8 61.625 323.2 62.275C324.6 62.925 326.375 63.25 328.525 63.25C330.675 63.25 332.575 62.925 334.225 62.275C335.925 61.625 336.775 60.55 336.775 59.05C336.775 57.85 336.1 57 334.75 56.5C333.45 55.95 331.375 55.425 328.525 54.925C325.675 54.475 323.3 53.95 321.4 53.35C319.55 52.75 317.95 51.8 316.6 50.5C315.3 49.15 314.65 47.3 314.65 44.95C314.65 41.95 315.525 39.4 317.275 37.3C319.025 35.2 321.3 33.625 324.1 32.575C326.95 31.475 329.975 30.925 333.175 30.925H334.675C337.125 30.925 339.425 31.325 341.575 32.125C343.725 32.875 345.45 33.95 346.75 35.35C348.05 36.75 348.7 38.375 348.7 40.225C348.7 41.075 348.625 41.725 348.475 42.175C348.325 42.625 348.25 42.875 348.25 42.925H338.65L338.725 42.175C338.725 39.675 336.625 38.425 332.425 38.425C330.175 38.425 328.35 38.775 326.95 39.475C325.6 40.125 324.925 41.025 324.925 42.175C324.925 43.275 325.55 44.05 326.8 44.5C328.1 44.95 330.15 45.4 332.95 45.85C335.95 46.35 338.375 46.875 340.225 47.425C342.125 47.975 343.775 48.925 345.175 50.275C346.575 51.625 347.275 53.525 347.275 55.975C347.275 61.125 345.425 64.875 341.725 67.225C338.025 69.575 333.55 70.75 328.3 70.75H325.825C321.475 70.75 317.95 69.85 315.25 68.05C312.6 66.2 311.275 63.75 311.275 60.7C311.275 59.75 311.375 58.775 311.575 57.775H321.175L321.1 59.05Z" fill="#4B7551"/>
</svg>
